<?xml version="1.0" encoding="UTF-8" standalone="no"?>
<svg
   width="1008pt"
   height="432pt"
   viewBox="0 0 1008 432"
   version="1.1"
   id="svg2125"
   sodipodi:docname="lossGraph.svg"
   inkscape:version="1.2.1 (9c6d41e410, 2022-07-14)"
   xmlns:inkscape="http://www.inkscape.org/namespaces/inkscape"
   xmlns:sodipodi="http://sodipodi.sourceforge.net/DTD/sodipodi-0.dtd"
   xmlns:xlink="http://www.w3.org/1999/xlink"
   xmlns="http://www.w3.org/2000/svg"
   xmlns:svg="http://www.w3.org/2000/svg"
   xmlns:rdf="http://www.w3.org/1999/02/22-rdf-syntax-ns#"
   xmlns:cc="http://creativecommons.org/ns#"
   xmlns:dc="http://purl.org/dc/elements/1.1/">
  <sodipodi:namedview
     id="namedview2127"
     pagecolor="#ffffff"
     bordercolor="#000000"
     borderopacity="0.25"
     inkscape:showpageshadow="2"
     inkscape:pageopacity="0.0"
     inkscape:pagecheckerboard="0"
     inkscape:deskcolor="#d1d1d1"
     inkscape:document-units="pt"
     showgrid="false"
     inkscape:zoom="0.45014881"
     inkscape:cx="61.090909"
     inkscape:cy="215.4843"
     inkscape:window-width="1920"
     inkscape:window-height="1009"
     inkscape:window-x="-8"
     inkscape:window-y="-8"
     inkscape:window-maximized="1"
     inkscape:current-layer="axes_1" />
  <metadata
     id="metadata1743">
    <rdf:RDF>
      <cc:Work>
        <dc:type
           rdf:resource="http://purl.org/dc/dcmitype/StillImage" />
        <dc:date>2022-10-31T16:12:45.067001</dc:date>
        <dc:format>image/svg+xml</dc:format>
        <dc:creator>
          <cc:Agent>
            <dc:title>Matplotlib v3.5.2, https://matplotlib.org/</dc:title>
          </cc:Agent>
        </dc:creator>
      </cc:Work>
    </rdf:RDF>
  </metadata>
  <defs
     id="defs1747">
    <style
       type="text/css"
       id="style1745">*{stroke-linejoin: round; stroke-linecap: butt}</style>
  </defs>
  <g
     id="figure_1">
    <g
       id="axes_1">
      <g
         id="patch_2">
        <path
           d="M 126 384.48  L 907.2 384.48  L 907.2 51.84  L 126 51.84  z "
           style="fill: #ffffff"
           id="path1752" />
      </g>
      <g
         id="PolyCollection_1">
        <path
           d="M 161.509091 66.96  L 161.509091 77.16624  L 168.682645 135.56459  L 175.856198 149.64124  L 183.029752 161.491623  L 190.203306 172.180442  L 197.37686 182.87363  L 204.550413 192.027666  L 211.723967 200.416968  L 218.897521 207.197775  L 226.071074 213.642832  L 233.244628 219.151604  L 240.418182 224.18839  L 247.591736 229.126697  L 254.765289 233.058577  L 261.938843 237.234166  L 269.112397 240.984228  L 276.28595 244.199851  L 283.459504 247.974115  L 290.633058 251.137296  L 297.806612 253.722252  L 304.980165 256.988701  L 312.153719 259.794287  L 319.327273 262.298511  L 326.500826 265.07208  L 333.67438 267.783787  L 340.847934 270.260992  L 348.021488 272.541336  L 355.195041 274.557542  L 362.368595 277.5131  L 369.542149 279.522056  L 376.715702 281.444641  L 383.889256 284.025488  L 391.06281 286.205544  L 398.236364 288.029995  L 405.409917 290.289244  L 412.583471 292.023913  L 419.757025 294.532361  L 426.930579 295.861415  L 434.104132 298.072773  L 441.277686 300.125937  L 448.45124 301.573179  L 455.624793 303.720862  L 462.798347 305.437471  L 469.971901 307.13154  L 477.145455 308.860972  L 484.319008 311.033434  L 491.492562 312.542949  L 498.666116 314.194678  L 505.839669 315.601155  L 513.013223 317.369296  L 520.186777 318.668846  L 527.360331 320.585229  L 534.533884 321.944324  L 541.707438 323.627715  L 548.880992 324.675537  L 556.054545 326.569687  L 563.228099 327.929076  L 570.401653 329.398858  L 577.575207 330.785185  L 584.74876 331.97497  L 591.922314 332.962478  L 599.095868 334.503201  L 606.269421 336.211703  L 613.442975 337.470838  L 620.616529 338.538316  L 627.790083 339.74982  L 634.963636 340.88058  L 642.13719 342.154501  L 649.310744 343.242885  L 656.484298 344.598316  L 663.657851 345.517619  L 670.831405 346.703218  L 678.004959 347.566177  L 685.178512 348.904783  L 692.352066 350.083212  L 699.52562 350.795143  L 706.699174 351.939618  L 713.872727 352.992094  L 721.046281 354.002003  L 728.219835 354.900514  L 735.393388 355.833181  L 742.566942 356.599567  L 749.740496 357.764919  L 756.91405 358.129784  L 764.087603 358.884053  L 771.261157 359.896635  L 778.434711 358.956228  L 785.608264 360.122025  L 792.781818 361.108791  L 799.955372 361.895263  L 807.128926 362.733497  L 814.302479 363.677566  L 821.476033 364.202498  L 828.649587 364.980257  L 835.82314 365.619818  L 842.996694 366.177243  L 850.170248 367.074177  L 857.343802 368.04781  L 864.517355 368.468657  L 871.690909 369.36  L 871.690909 367.954122  L 871.690909 367.954122  L 864.517355 367.193609  L 857.343802 366.62893  L 850.170248 365.960602  L 842.996694 364.946668  L 835.82314 364.029863  L 828.649587 363.534431  L 821.476033 362.705581  L 814.302479 362.013319  L 807.128926 361.145873  L 799.955372 360.278181  L 792.781818 359.522045  L 785.608264 358.494314  L 778.434711 357.201088  L 771.261157 357.408472  L 764.087603 356.497752  L 756.91405 355.698538  L 749.740496 355.216531  L 742.566942 353.881825  L 735.393388 353.298938  L 728.219835 352.337047  L 721.046281 351.29248  L 713.872727 350.161908  L 706.699174 349.119495  L 699.52562 348.166033  L 692.352066 347.337402  L 685.178512 346.148511  L 678.004959 344.739071  L 670.831405 343.95172  L 663.657851 342.579566  L 656.484298 341.793036  L 649.310744 340.24452  L 642.13719 339.034482  L 634.963636 337.925897  L 627.790083 336.845998  L 620.616529 335.586213  L 613.442975 334.51121  L 606.269421 333.09203  L 599.095868 331.39958  L 591.922314 330.093287  L 584.74876 328.792074  L 577.575207 327.551136  L 570.401653 326.213891  L 563.228099 324.676669  L 556.054545 323.330909  L 548.880992 321.395729  L 541.707438 320.043703  L 534.533884 318.645636  L 527.360331 317.188035  L 520.186777 315.085436  L 513.013223 313.841362  L 505.839669 312.205323  L 498.666116 310.624032  L 491.492562 308.954044  L 484.319008 307.422364  L 477.145455 305.039216  L 469.971901 303.404659  L 462.798347 301.68499  L 455.624793 299.997733  L 448.45124 297.75991  L 441.277686 296.29458  L 434.104132 294.212261  L 426.930579 291.965672  L 419.757025 290.533053  L 412.583471 287.869608  L 405.409917 286.108537  L 398.236364 284.044557  L 391.06281 281.906722  L 383.889256 279.646736  L 376.715702 277.179865  L 369.542149 275.193391  L 362.368595 273.074346  L 355.195041 269.867934  L 348.021488 268.005038  L 340.847934 265.709044  L 333.67438 263.045977  L 326.500826 260.287375  L 319.327273 257.221344  L 312.153719 254.852401  L 304.980165 251.853935  L 297.806612 248.364711  L 290.633058 245.960957  L 283.459504 242.638421  L 276.28595 238.554325  L 269.112397 235.544383  L 261.938843 231.583054  L 254.765289 227.441686  L 247.591736 223.257775  L 240.418182 218.336994  L 233.244628 213.24973  L 226.071074 207.400383  L 218.897521 201.029311  L 211.723967 193.97909  L 204.550413 185.671499  L 197.37686 176.03547  L 190.203306 165.294935  L 183.029752 154.285613  L 175.856198 141.944345  L 168.682645 127.317499  L 161.509091 66.96  z "
           clip-path="url(#pf040a3165f)"
           style="fill: #0000ff; fill-opacity: 0.2"
           id="path1755" />
      </g>
      <g
         id="PolyCollection_2">
        <path
           d="M 161.509091 94.381935  L 161.509091 169.345628  L 168.682645 180.437755  L 175.856198 182.500321  L 183.029752 195.337815  L 190.203306 204.738994  L 197.37686 213.519505  L 204.550413 218.000613  L 211.723967 223.618436  L 218.897521 229.974693  L 226.071074 233.786288  L 233.244628 237.962501  L 240.418182 241.266164  L 247.591736 244.260113  L 254.765289 247.762677  L 261.938843 249.869426  L 269.112397 251.631036  L 276.28595 253.754826  L 283.459504 256.310936  L 290.633058 257.898038  L 297.806612 259.957154  L 304.980165 261.43907  L 312.153719 262.838692  L 319.327273 263.555483  L 326.500826 265.827614  L 333.67438 267.198024  L 340.847934 267.711006  L 348.021488 269.564846  L 355.195041 270.121224  L 362.368595 272.051316  L 369.542149 272.472376  L 376.715702 273.790529  L 383.889256 275.057392  L 391.06281 276.006141  L 398.236364 277.052805  L 405.409917 277.827086  L 412.583471 278.88485  L 419.757025 279.788409  L 426.930579 279.827304  L 434.104132 281.077836  L 441.277686 281.675541  L 448.45124 282.328118  L 455.624793 283.645204  L 462.798347 283.93779  L 469.971901 284.577444  L 477.145455 285.478417  L 484.319008 285.701652  L 491.492562 286.823203  L 498.666116 287.050867  L 505.839669 287.415617  L 513.013223 287.77177  L 520.186777 289.088259  L 527.360331 289.404382  L 534.533884 290.220303  L 541.707438 290.249173  L 548.880992 290.562036  L 556.054545 291.111619  L 563.228099 292.053218  L 570.401653 292.16935  L 577.575207 292.92264  L 584.74876 292.81542  L 591.922314 293.381745  L 599.095868 293.665787  L 606.269421 294.216364  L 613.442975 294.848396  L 620.616529 295.001615  L 627.790083 295.088273  L 634.963636 295.262521  L 642.13719 294.901014  L 649.310744 296.505026  L 656.484298 296.605067  L 663.657851 296.409939  L 670.831405 295.877753  L 678.004959 297.332224  L 685.178512 297.391957  L 692.352066 297.450548  L 699.52562 297.937772  L 706.699174 297.981265  L 713.872727 298.048171  L 721.046281 298.153793  L 728.219835 298.373926  L 735.393388 298.323377  L 742.566942 298.602965  L 749.740496 298.791565  L 756.91405 307.335455  L 764.087603 307.063472  L 771.261157 306.983484  L 778.434711 315.669921  L 785.608264 316.056437  L 792.781818 316.072869  L 799.955372 316.288462  L 807.128926 316.571992  L 814.302479 316.347435  L 821.476033 316.635557  L 828.649587 316.480523  L 835.82314 316.590231  L 842.996694 316.964889  L 850.170248 316.757245  L 857.343802 316.830543  L 864.517355 317.109455  L 871.690909 316.974907  L 871.690909 298.951466  L 871.690909 298.951466  L 864.517355 298.932272  L 857.343802 298.791369  L 850.170248 298.931347  L 842.996694 298.542843  L 835.82314 298.054632  L 828.649587 298.339761  L 821.476033 298.815327  L 814.302479 298.613753  L 807.128926 298.667314  L 799.955372 298.580639  L 792.781818 298.090683  L 785.608264 298.391578  L 778.434711 298.003082  L 771.261157 275.891363  L 764.087603 275.908354  L 756.91405 276.047002  L 749.740496 262.542599  L 742.566942 262.823071  L 735.393388 261.99581  L 728.219835 262.519753  L 721.046281 262.601473  L 713.872727 262.509545  L 706.699174 262.826814  L 699.52562 262.519712  L 692.352066 261.467829  L 685.178512 262.163473  L 678.004959 262.365742  L 670.831405 258.393904  L 663.657851 261.186318  L 656.484298 261.450288  L 649.310744 261.631462  L 642.13719 260.313003  L 634.963636 259.670102  L 627.790083 259.789541  L 620.616529 259.807059  L 613.442975 259.69727  L 606.269421 258.870718  L 599.095868 258.478386  L 591.922314 257.936315  L 584.74876 257.059164  L 577.575207 257.651052  L 570.401653 256.071618  L 563.228099 257.00511  L 556.054545 255.571243  L 548.880992 255.528713  L 541.707438 254.844218  L 534.533884 254.762703  L 527.360331 254.083806  L 520.186777 253.043655  L 513.013223 252.086684  L 505.839669 250.625313  L 498.666116 250.428095  L 491.492562 250.823949  L 484.319008 248.717192  L 477.145455 249.030243  L 469.971901 248.496235  L 462.798347 246.792655  L 455.624793 246.995373  L 448.45124 244.670069  L 441.277686 244.007205  L 434.104132 243.241562  L 426.930579 241.038725  L 419.757025 242.480257  L 412.583471 240.779526  L 405.409917 239.026257  L 398.236364 238.671325  L 391.06281 237.283415  L 383.889256 236.295382  L 376.715702 234.973332  L 369.542149 232.17307  L 362.368595 231.71769  L 355.195041 228.590687  L 348.021488 228.334786  L 340.847934 225.748082  L 333.67438 225.307268  L 326.500826 223.735076  L 319.327273 219.973333  L 312.153719 218.743802  L 304.980165 217.74289  L 297.806612 216.263692  L 290.633058 213.52215  L 283.459504 210.409984  L 276.28595 207.728424  L 269.112397 204.45268  L 261.938843 201.632426  L 254.765289 199.631471  L 247.591736 194.660019  L 240.418182 190.061793  L 233.244628 185.37992  L 226.071074 180.01825  L 218.897521 175.618454  L 211.723967 168.810331  L 204.550413 159.314156  L 197.37686 153.380406  L 190.203306 140.961045  L 183.029752 130.37191  L 175.856198 115.081035  L 168.682645 107.688763  L 161.509091 94.381935  z "
           clip-path="url(#pf040a3165f)"
           style="fill: #ff0000; fill-opacity: 0.2"
           id="path1758" />
      </g>
      <g
         id="line2d_15">
        <path
           d="M 161.509091 72.06312  L 168.682645 131.441044  L 175.856198 145.792793  L 183.029752 157.888618  L 190.203306 168.737688  L 197.37686 179.45455  L 204.550413 188.849582  L 211.723967 197.198029  L 218.897521 204.113543  L 226.071074 210.521607  L 233.244628 216.200667  L 240.418182 221.262692  L 247.591736 226.192236  L 254.765289 230.250132  L 261.938843 234.40861  L 269.112397 238.264305  L 276.28595 241.377088  L 283.459504 245.306268  L 290.633058 248.549127  L 297.806612 251.043481  L 304.980165 254.421318  L 312.153719 257.323344  L 319.327273 259.759928  L 326.500826 262.679727  L 333.67438 265.414882  L 340.847934 267.985018  L 348.021488 270.273187  L 355.195041 272.212738  L 362.368595 275.293723  L 369.542149 277.357724  L 376.715702 279.312253  L 383.889256 281.836112  L 391.06281 284.056133  L 398.236364 286.037276  L 405.409917 288.198891  L 412.583471 289.946761  L 419.757025 292.532707  L 426.930579 293.913544  L 434.104132 296.142517  L 441.277686 298.210258  L 448.45124 299.666544  L 455.624793 301.859297  L 462.798347 303.56123  L 469.971901 305.2681  L 477.145455 306.950094  L 484.319008 309.227899  L 491.492562 310.748497  L 498.666116 312.409355  L 505.839669 313.903239  L 513.013223 315.605329  L 520.186777 316.877141  L 527.360331 318.886632  L 534.533884 320.29498  L 541.707438 321.835709  L 548.880992 323.035633  L 556.054545 324.950298  L 563.228099 326.302872  L 570.401653 327.806374  L 577.575207 329.168161  L 584.74876 330.383522  L 591.922314 331.527883  L 599.095868 332.951391  L 606.269421 334.651867  L 613.442975 335.991024  L 620.616529 337.062264  L 627.790083 338.297909  L 634.963636 339.403238  L 642.13719 340.594491  L 649.310744 341.743703  L 656.484298 343.195676  L 663.657851 344.048592  L 670.831405 345.327469  L 678.004959 346.152624  L 685.178512 347.526647  L 692.352066 348.710307  L 699.52562 349.480588  L 706.699174 350.529557  L 713.872727 351.577001  L 721.046281 352.647242  L 728.219835 353.61878  L 735.393388 354.56606  L 742.566942 355.240696  L 749.740496 356.490725  L 756.91405 356.914161  L 764.087603 357.690903  L 771.261157 358.652554  L 778.434711 358.078658  L 785.608264 359.308169  L 792.781818 360.315418  L 799.955372 361.086722  L 807.128926 361.939685  L 814.302479 362.845443  L 821.476033 363.454039  L 828.649587 364.257344  L 835.82314 364.824841  L 842.996694 365.561955  L 850.170248 366.517389  L 857.343802 367.33837  L 864.517355 367.831133  L 871.690909 368.657061  "
           clip-path="url(#pf040a3165f)"
           style="fill: none; stroke: #0000ff; stroke-width: 1.5; stroke-linecap: square"
           id="path2010" />
      </g>
      <g
         id="line2d_16">
        <path
           d="M 161.509091 131.863782  L 168.682645 144.063259  L 175.856198 148.790678  L 183.029752 162.854863  L 190.203306 172.850019  L 197.37686 183.449955  L 204.550413 188.657384  L 211.723967 196.214384  L 218.897521 202.796573  L 226.071074 206.902269  L 233.244628 211.67121  L 240.418182 215.663978  L 247.591736 219.460066  L 254.765289 223.697074  L 261.938843 225.750926  L 269.112397 228.041858  L 276.28595 230.741625  L 283.459504 233.36046  L 290.633058 235.710094  L 297.806612 238.110423  L 304.980165 239.59098  L 312.153719 240.791247  L 319.327273 241.764408  L 326.500826 244.781345  L 333.67438 246.252646  L 340.847934 246.729544  L 348.021488 248.949816  L 355.195041 249.355955  L 362.368595 251.884503  L 369.542149 252.322723  L 376.715702 254.38193  L 383.889256 255.676387  L 391.06281 256.644778  L 398.236364 257.862065  L 405.409917 258.426672  L 412.583471 259.832188  L 419.757025 261.134333  L 426.930579 260.433015  L 434.104132 262.159699  L 441.277686 262.841373  L 448.45124 263.499094  L 455.624793 265.320288  L 462.798347 265.365222  L 469.971901 266.536839  L 477.145455 267.25433  L 484.319008 267.209422  L 491.492562 268.823576  L 498.666116 268.739481  L 505.839669 269.020465  L 513.013223 269.929227  L 520.186777 271.065957  L 527.360331 271.744094  L 534.533884 272.491503  L 541.707438 272.546696  L 548.880992 273.045375  L 556.054545 273.341431  L 563.228099 274.529164  L 570.401653 274.120484  L 577.575207 275.286846  L 584.74876 274.937292  L 591.922314 275.65903  L 599.095868 276.072087  L 606.269421 276.543541  L 613.442975 277.272833  L 620.616529 277.404337  L 627.790083 277.438907  L 634.963636 277.466311  L 642.13719 277.607009  L 649.310744 279.068244  L 656.484298 279.027678  L 663.657851 278.798128  L 670.831405 277.135829  L 678.004959 279.848983  L 685.178512 279.777715  L 692.352066 279.459188  L 699.52562 280.228742  L 706.699174 280.40404  L 713.872727 280.278858  L 721.046281 280.377633  L 728.219835 280.446839  L 735.393388 280.159594  L 742.566942 280.713018  L 749.740496 280.667082  L 756.91405 291.691229  L 764.087603 291.485913  L 771.261157 291.437423  L 778.434711 306.836501  L 785.608264 307.224008  L 792.781818 307.081776  L 799.955372 307.43455  L 807.128926 307.619653  L 814.302479 307.480594  L 821.476033 307.725442  L 828.649587 307.410142  L 835.82314 307.322431  L 842.996694 307.753866  L 850.170248 307.844296  L 857.343802 307.810956  L 864.517355 308.020864  L 871.690909 307.963186  "
           clip-path="url(#pf040a3165f)"
           style="fill: none; stroke: #ff0000; stroke-width: 1.5; stroke-linecap: square"
           id="path2013" />
      </g>
      <g
         id="patch_3">
        <path
           d="M 126 384.48  L 126 51.84  "
           style="fill: none; stroke: #000000; stroke-width: 0.8; stroke-linejoin: miter; stroke-linecap: square"
           id="path2016" />
      </g>
      <g
         id="patch_4">
        <path
           d="M 907.2 384.48  L 907.2 51.84  "
           style="fill: none; stroke: #000000; stroke-width: 0.8; stroke-linejoin: miter; stroke-linecap: square"
           id="path2019" />
      </g>
      <g
         id="patch_5">
        <path
           d="M 126 384.48  L 907.2 384.48  "
           style="fill: none; stroke: #000000; stroke-width: 0.8; stroke-linejoin: miter; stroke-linecap: square"
           id="path2022" />
      </g>
      <g
         id="patch_6">
        <path
           d="M 126 51.84  L 907.2 51.84  "
           style="fill: none; stroke: #000000; stroke-width: 0.8; stroke-linejoin: miter; stroke-linecap: square"
           id="path2025" />
      </g>
      <g
         id="legend_1"
         transform="translate(-18.238467,-12.673479)">
        <g
           id="patch_7"
           transform="matrix(2.21,0,0,2.21,-1069.1736,-60.027965)">
          <path
             d="M 793.70625,89.19625 H 900.2 q 2,0 2,-2 V 58.84 q 0,-2 -2,-2 H 793.70625 q -2,0 -2,2 v 28.35625 q 0,2 2,2 z"
             style="opacity:0.8;fill:#ffffff;stroke:#cccccc;stroke-linejoin:miter"
             id="path2028" />
        </g>
        <g
           id="line2d_17"
           transform="matrix(2.21,0,0,1,-1070.959,20.866116)">
          <path
             d="m 795.70625,64.938437 h 10 10"
             style="fill:none;stroke:#0000ff;stroke-width:1.5;stroke-linecap:square"
             id="path2031" />
        </g>
        <g
           id="text_15"
           transform="matrix(2.21,0,0,2.21,-1079.7939,-57.147698)">
          <!-- Training Loss -->
          <g
             transform="matrix(0.1,0,0,-0.1,823.70625,68.438437)"
             id="g2072">
            <defs
               id="defs2044">
              <path
                 id="DejaVuSans-54"
                 d="M -19,4666 H 3928 V 4134 H 2272 V 0 H 1638 V 4134 H -19 Z"
                 transform="scale(0.015625)" />
              <path
                 id="DejaVuSans-72"
                 d="m 2631,2963 q -97,56 -211,82 -114,27 -251,27 -488,0 -749,-317 -261,-317 -261,-911 V 0 H 581 v 3500 h 578 v -544 q 182,319 472,473 291,155 707,155 59,0 131,-8 72,-7 159,-23 z"
                 transform="scale(0.015625)" />
              <path
                 id="DejaVuSans-61"
                 d="m 2194,1759 q -697,0 -966,-159 -269,-159 -269,-544 0,-306 202,-486 202,-179 548,-179 479,0 768,339 289,339 289,901 v 128 z m 1147,238 V 0 H 2766 V 531 Q 2569,213 2275,61 1981,-91 1556,-91 q -537,0 -855,302 -317,302 -317,808 0,590 395,890 396,300 1180,300 h 807 v 57 q 0,397 -261,614 -261,217 -733,217 -300,0 -585,-72 -284,-72 -546,-216 v 532 q 315,122 612,182 297,61 578,61 760,0 1135,-394 375,-393 375,-1193 z"
                 transform="scale(0.015625)" />
              <path
                 id="DejaVuSans-69"
                 d="m 603,3500 h 575 V 0 H 603 Z m 0,1363 h 575 V 4134 H 603 Z"
                 transform="scale(0.015625)" />
              <path
                 id="DejaVuSans-6e"
                 d="M 3513,2113 V 0 h -575 v 2094 q 0,497 -194,743 -194,247 -581,247 -466,0 -735,-297 -269,-296 -269,-809 V 0 H 581 v 3500 h 578 v -544 q 207,316 486,472 280,156 646,156 603,0 912,-373 310,-373 310,-1098 z"
                 transform="scale(0.015625)" />
              <path
                 id="DejaVuSans-67"
                 d="m 2906,1791 q 0,625 -258,968 -257,344 -723,344 -462,0 -720,-344 -258,-343 -258,-968 0,-622 258,-966 258,-344 720,-344 466,0 723,344 258,344 258,966 z M 3481,434 q 0,-893 -397,-1329 -396,-436 -1215,-436 -303,0 -572,45 -269,45 -522,139 v 559 q 253,-137 500,-202 247,-66 503,-66 566,0 847,295 281,295 281,892 V 616 Q 2728,306 2450,153 2172,0 1784,0 1141,0 747,490 353,981 353,1791 q 0,812 394,1302 394,491 1037,491 388,0 666,-153 278,-153 456,-462 v 531 h 575 z"
                 transform="scale(0.015625)" />
              <path
                 id="DejaVuSans-20"
                 transform="scale(0.015625)" />
              <path
                 id="DejaVuSans-4c"
                 d="m 628,4666 h 631 V 531 H 3531 V 0 H 628 Z"
                 transform="scale(0.015625)" />
              <path
                 id="DejaVuSans-6f"
                 d="m 1959,3097 q -462,0 -731,-361 -269,-361 -269,-989 0,-628 267,-989 268,-361 733,-361 460,0 728,362 269,363 269,988 0,622 -269,986 -268,364 -728,364 z m 0,487 q 750,0 1178,-488 429,-487 429,-1349 Q 3566,888 3137,398 2709,-91 1959,-91 1206,-91 779,398 353,888 353,1747 q 0,862 426,1349 427,488 1180,488 z"
                 transform="scale(0.015625)" />
              <path
                 id="DejaVuSans-73"
                 d="m 2834,3397 v -544 q -243,125 -506,187 -262,63 -544,63 -428,0 -642,-131 -214,-131 -214,-394 0,-200 153,-314 153,-114 616,-217 l 197,-44 q 612,-131 870,-370 258,-239 258,-667 0,-488 -386,-773 Q 2250,-91 1575,-91 1294,-91 989,-36 684,19 347,128 v 594 q 319,-166 628,-249 309,-82 613,-82 406,0 624,139 219,139 219,392 0,234 -158,359 -157,125 -692,241 l -200,47 q -534,112 -772,345 -237,233 -237,639 0,494 350,762 350,269 994,269 318,0 599,-47 282,-46 519,-140 z"
                 transform="scale(0.015625)" />
            </defs>
            <use
               xlink:href="#DejaVuSans-54"
               id="use2046" />
            <use
               xlink:href="#DejaVuSans-72"
               x="46.333984"
               id="use2048" />
            <use
               xlink:href="#DejaVuSans-61"
               x="87.447266"
               id="use2050" />
            <use
               xlink:href="#DejaVuSans-69"
               x="148.72656"
               id="use2052" />
            <use
               xlink:href="#DejaVuSans-6e"
               x="176.50977"
               id="use2054" />
            <use
               xlink:href="#DejaVuSans-69"
               x="239.88867"
               id="use2056" />
            <use
               xlink:href="#DejaVuSans-6e"
               x="267.67188"
               id="use2058" />
            <use
               xlink:href="#DejaVuSans-67"
               x="331.05078"
               id="use2060" />
            <use
               xlink:href="#DejaVuSans-20"
               x="394.52734"
               id="use2062" />
            <use
               xlink:href="#DejaVuSans-4c"
               x="426.31445"
               id="use2064" />
            <use
               xlink:href="#DejaVuSans-6f"
               x="480.27734"
               id="use2066" />
            <use
               xlink:href="#DejaVuSans-73"
               x="541.45898"
               id="use2068" />
            <use
               xlink:href="#DejaVuSans-73"
               x="593.55859"
               id="use2070" />
          </g>
        </g>
        <g
           id="line2d_18"
           transform="matrix(2.21,0,0,1,-1069.2508,38.990083)">
          <path
             d="m 795.70625,79.616562 h 10 10"
             style="fill:none;stroke:#ff0000;stroke-width:1.5;stroke-linecap:square"
             id="path2075" />
        </g>
        <g
           id="text_16"
           transform="matrix(2.21,0,0,2.21,-1084.3659,-58.736042)">
          <!-- Validation Loss -->
          <g
             transform="matrix(0.1,0,0,-0.1,823.70625,83.116562)"
             id="g2114">
            <defs
               id="defs2082">
              <path
                 id="DejaVuSans-56"
                 d="M 1831,0 50,4666 H 709 L 2188,738 3669,4666 h 656 L 2547,0 Z"
                 transform="scale(0.015625)" />
              <path
                 id="DejaVuSans-6c"
                 d="m 603,4863 h 575 V 0 H 603 Z"
                 transform="scale(0.015625)" />
              <path
                 id="DejaVuSans-64"
                 d="m 2906,2969 v 1894 h 575 V 0 H 2906 V 525 Q 2725,213 2448,61 2172,-91 1784,-91 1150,-91 751,415 353,922 353,1747 q 0,825 398,1331 399,506 1033,506 388,0 664,-152 277,-151 458,-463 z M 947,1747 q 0,-634 261,-995 261,-361 717,-361 456,0 718,361 263,361 263,995 0,634 -263,995 -262,361 -718,361 -456,0 -717,-361 -261,-361 -261,-995 z"
                 transform="scale(0.015625)" />
              <path
                 id="DejaVuSans-74"
                 d="M 1172,4494 V 3500 H 2356 V 3053 H 1172 V 1153 q 0,-428 117,-550 117,-122 477,-122 h 590 V 0 H 1766 Q 1100,0 847,248 594,497 594,1153 V 3053 H 172 v 447 h 422 v 994 z"
                 transform="scale(0.015625)" />
            </defs>
            <use
               xlink:href="#DejaVuSans-56"
               id="use2084" />
            <use
               xlink:href="#DejaVuSans-61"
               x="60.658203"
               id="use2086" />
            <use
               xlink:href="#DejaVuSans-6c"
               x="121.9375"
               id="use2088" />
            <use
               xlink:href="#DejaVuSans-69"
               x="149.7207"
               id="use2090" />
            <use
               xlink:href="#DejaVuSans-64"
               x="177.50391"
               id="use2092" />
            <use
               xlink:href="#DejaVuSans-61"
               x="240.98047"
               id="use2094" />
            <use
               xlink:href="#DejaVuSans-74"
               x="302.25977"
               id="use2096" />
            <use
               xlink:href="#DejaVuSans-69"
               x="341.46875"
               id="use2098" />
            <use
               xlink:href="#DejaVuSans-6f"
               x="369.25195"
               id="use2100" />
            <use
               xlink:href="#DejaVuSans-6e"
               x="430.43359"
               id="use2102" />
            <use
               xlink:href="#DejaVuSans-20"
               x="493.8125"
               id="use2104" />
            <use
               xlink:href="#DejaVuSans-4c"
               x="525.59961"
               id="use2106" />
            <use
               xlink:href="#DejaVuSans-6f"
               x="579.5625"
               id="use2108" />
            <use
               xlink:href="#DejaVuSans-73"
               x="640.74414"
               id="use2110" />
            <use
               xlink:href="#DejaVuSans-73"
               x="692.84375"
               id="use2112" />
          </g>
        </g>
      </g>
      <text
         xml:space="preserve"
         style="font-size:9px;fill:#000000;stroke-width:0.75"
         x="26.875608"
         y="75.19828"
         id="text2474"><tspan
           sodipodi:role="line"
           id="tspan2472"
           style="stroke-width:0.75"
           x="26.875608"
           y="75.19828">0.45</tspan></text>
      <text
         xml:space="preserve"
         style="font-size:9px;fill:#000000;stroke-width:0.75"
         x="26.482269"
         y="116.22637"
         id="text2528"><tspan
           sodipodi:role="line"
           id="tspan2526"
           style="stroke-width:0.75"
           x="26.482269"
           y="116.22637">0.4</tspan></text>
      <text
         xml:space="preserve"
         style="font-size:9px;fill:#000000;stroke-width:0.75"
         x="26.389585"
         y="160.55096"
         id="text2532"><tspan
           sodipodi:role="line"
           id="tspan2530"
           style="stroke-width:0.75"
           x="26.389585"
           y="160.55096">0.35</tspan></text>
      <text
         xml:space="preserve"
         style="font-size:9px;fill:#000000;stroke-width:0.75"
         x="29.29888"
         y="206.17569"
         id="text2536"><tspan
           sodipodi:role="line"
           id="tspan2534"
           style="stroke-width:0.75"
           x="29.29888"
           y="206.17569">0.3</tspan></text>
      <text
         xml:space="preserve"
         style="font-size:9px;fill:#000000;stroke-width:0.75"
         x="27.81559"
         y="252.58293"
         id="text2540"><tspan
           sodipodi:role="line"
           id="tspan2538"
           style="stroke-width:0.75"
           x="27.81559"
           y="252.58293">0.25</tspan></text>
      <text
         xml:space="preserve"
         style="font-size:9px;fill:#000000;stroke-width:0.75"
         x="28.326761"
         y="295.17606"
         id="text2544"><tspan
           sodipodi:role="line"
           id="tspan2542"
           style="stroke-width:0.75"
           x="28.326761"
           y="295.17606">0.2</tspan></text>
      <text
         xml:space="preserve"
         style="font-size:9px;fill:#000000;stroke-width:0.75"
         x="26.222908"
         y="340.87225"
         id="text2548"><tspan
           sodipodi:role="line"
           id="tspan2546"
           style="stroke-width:0.75"
           x="26.222908"
           y="340.87225">0.15</tspan></text>
      <text
         xml:space="preserve"
         style="font-size:9px;fill:#000000;stroke-width:0.75"
         x="27.302782"
         y="384.7298"
         id="text2552"><tspan
           sodipodi:role="line"
           id="tspan2550"
           style="stroke-width:0.75"
           x="27.302782"
           y="384.7298">0.1</tspan></text>
      <text
         xml:space="preserve"
         style="font-size:9px;fill:#000000;stroke-width:0.75"
         x="157.36168"
         y="424.87903"
         id="text2556"><tspan
           sodipodi:role="line"
           id="tspan2554"
           style="stroke-width:0.75"
           x="157.36168"
           y="424.87903">0</tspan></text>
      <text
         xml:space="preserve"
         style="font-size:9px;fill:#000000;stroke-width:0.75"
         x="299.24292"
         y="425.29745"
         id="text2560"><tspan
           sodipodi:role="line"
           id="tspan2558"
           style="stroke-width:0.75"
           x="299.24292"
           y="425.29745">20</tspan></text>
      <text
         xml:space="preserve"
         style="font-size:9px;fill:#000000;stroke-width:0.75"
         x="442.55725"
         y="423.38055"
         id="text2564"><tspan
           sodipodi:role="line"
           id="tspan2562"
           style="stroke-width:0.75"
           x="442.55725"
           y="423.38055">40</tspan></text>
      <text
         xml:space="preserve"
         style="font-size:9px;fill:#000000;stroke-width:0.75"
         x="587.24316"
         y="425.32443"
         id="text2568"><tspan
           sodipodi:role="line"
           id="tspan2566"
           style="stroke-width:0.75"
           x="587.24316"
           y="425.32443">60</tspan></text>
      <text
         xml:space="preserve"
         style="font-size:9px;fill:#000000;stroke-width:0.75"
         x="729.77496"
         y="425.0676"
         id="text2572"><tspan
           sodipodi:role="line"
           id="tspan2570"
           style="stroke-width:0.75"
           x="729.77496"
           y="425.0676">80</tspan></text>
      <text
         xml:space="preserve"
         style="font-size:9px;fill:#000000;stroke-width:0.75"
         x="870.45935"
         y="424.7186"
         id="text2576"><tspan
           sodipodi:role="line"
           id="tspan2574"
           style="stroke-width:0.75"
           x="870.45935"
           y="424.7186">100</tspan></text>
      <rect
         style="fill:#000000;stroke-width:0.75"
         id="rect2895"
         width="10.308565"
         height="1.1781217"
         x="121.64107"
         y="69.509186" />
      <rect
         style="fill:#000000;stroke-width:0.75;stroke-linecap:butt;stroke-linejoin:round"
         id="rect2895-0"
         width="10.308565"
         height="1.1781217"
         x="120.61021"
         y="113.39422" />
      <rect
         style="fill:#000000;stroke-width:0.75;stroke-linecap:butt;stroke-linejoin:round"
         id="rect2895-3"
         width="10.308565"
         height="1.1781217"
         x="121.4938"
         y="157.86832" />
      <rect
         style="fill:#000000;stroke-width:0.75;stroke-linecap:butt;stroke-linejoin:round"
         id="rect2895-32"
         width="10.308565"
         height="1.1781217"
         x="122.08286"
         y="202.63695" />
      <rect
         style="fill:#000000;stroke-width:0.75;stroke-linecap:butt;stroke-linejoin:round"
         id="rect2895-6"
         width="10.308565"
         height="1.1781217"
         x="120.90473"
         y="246.8165" />
      <rect
         style="fill:#000000;stroke-width:0.75;stroke-linecap:butt;stroke-linejoin:round"
         id="rect2895-34"
         width="10.308565"
         height="1.1781217"
         x="120.31568"
         y="291.29059" />
      <rect
         style="fill:#000000;stroke-width:0.75;stroke-linecap:butt;stroke-linejoin:round"
         id="rect2895-5"
         width="10.308565"
         height="1.1781217"
         x="120.31567"
         y="335.47015" />
      <rect
         style="fill:#000000;stroke-width:0.75;stroke-linecap:butt;stroke-linejoin:round"
         id="rect2895-55"
         width="10.308565"
         height="1.1781217"
         x="120.02115"
         y="379.94424" />
      <rect
         style="fill:#000000;stroke-width:0.75"
         id="rect3090"
         width="1.4578512"
         height="6.4561987"
         x="160.36363"
         y="382.16528" />
      <rect
         style="fill:#000000;stroke-width:0.75;stroke-linecap:butt;stroke-linejoin:round"
         id="rect3090-9"
         width="1.4578512"
         height="6.4561987"
         x="304.37851"
         y="382.06116" />
      <rect
         style="fill:#000000;stroke-width:0.75;stroke-linecap:butt;stroke-linejoin:round"
         id="rect3090-1"
         width="1.4578512"
         height="6.4561987"
         x="447.87271"
         y="381.85291" />
      <rect
         style="fill:#000000;stroke-width:0.75;stroke-linecap:butt;stroke-linejoin:round"
         id="rect3090-0"
         width="1.4578512"
         height="6.4561987"
         x="590.68823"
         y="382.60678" />
      <rect
         style="fill:#000000;stroke-width:0.75;stroke-linecap:butt;stroke-linejoin:round"
         id="rect3090-4"
         width="1.4578512"
         height="6.4561987"
         x="735.00806"
         y="382.60675" />
      <rect
         style="fill:#000000;stroke-width:0.75;stroke-linecap:butt;stroke-linejoin:round"
         id="rect3090-2"
         width="1.4578512"
         height="6.4561987"
         x="877.56085"
         y="382.0177" />
    </g>
  </g>
  <defs
     id="defs2123">
    <clipPath
       id="pf040a3165f">
      <rect
         x="126"
         y="51.84"
         width="781.2"
         height="332.64"
         id="rect2120" />
    </clipPath>
  </defs>
</svg>
