<?xml version="1.0" encoding="UTF-8" standalone="no"?>
<svg
   width="1008pt"
   height="432pt"
   viewBox="0 0 1008 432"
   version="1.1"
   id="svg6262"
   sodipodi:docname="manual_loss.svg"
   inkscape:version="1.2.1 (9c6d41e410, 2022-07-14)"
   xmlns:inkscape="http://www.inkscape.org/namespaces/inkscape"
   xmlns:sodipodi="http://sodipodi.sourceforge.net/DTD/sodipodi-0.dtd"
   xmlns:xlink="http://www.w3.org/1999/xlink"
   xmlns="http://www.w3.org/2000/svg"
   xmlns:svg="http://www.w3.org/2000/svg"
   xmlns:rdf="http://www.w3.org/1999/02/22-rdf-syntax-ns#"
   xmlns:cc="http://creativecommons.org/ns#"
   xmlns:dc="http://purl.org/dc/elements/1.1/">
  <sodipodi:namedview
     id="namedview6264"
     pagecolor="#ffffff"
     bordercolor="#000000"
     borderopacity="0.25"
     inkscape:showpageshadow="2"
     inkscape:pageopacity="0.0"
     inkscape:pagecheckerboard="0"
     inkscape:deskcolor="#d1d1d1"
     inkscape:document-units="pt"
     showgrid="false"
     inkscape:zoom="0.90029762"
     inkscape:cx="761.41488"
     inkscape:cy="425.97025"
     inkscape:window-width="1350"
     inkscape:window-height="1032"
     inkscape:window-x="53"
     inkscape:window-y="100"
     inkscape:window-maximized="0"
     inkscape:current-layer="svg6262" />
  <metadata
     id="metadata5936">
    <rdf:RDF>
      <cc:Work>
        <dc:type
           rdf:resource="http://purl.org/dc/dcmitype/StillImage" />
        <dc:date>2022-10-31T18:26:04.772143</dc:date>
        <dc:format>image/svg+xml</dc:format>
        <dc:creator>
          <cc:Agent>
            <dc:title>Matplotlib v3.5.2, https://matplotlib.org/</dc:title>
          </cc:Agent>
        </dc:creator>
      </cc:Work>
    </rdf:RDF>
  </metadata>
  <defs
     id="defs5940">
    <style
       type="text/css"
       id="style5938">*{stroke-linejoin: round; stroke-linecap: butt}</style>
  </defs>
  <g
     id="figure_1">
    <g
       id="patch_1">
      <path
         d="M 0 432  L 1008 432  L 1008 0  L 0 0  z "
         style="fill: #ffffff"
         id="path5942" />
    </g>
    <g
       id="axes_1">
      <g
         id="patch_2">
        <path
           d="M 126 384.48  L 907.2 384.48  L 907.2 51.84  L 126 51.84  z "
           style="fill: #ffffff"
           id="path5945" />
      </g>
      <g
         id="PolyCollection_1">
        <path
           d="M 161.509091 66.96  L 161.509091 74.655667  L 168.682645 141.784173  L 175.856198 155.132875  L 183.029752 167.310846  L 190.203306 178.013282  L 197.37686 188.192777  L 204.550413 198.769094  L 211.723967 207.81962  L 218.897521 215.699599  L 226.071074 222.928163  L 233.244628 229.074468  L 240.418182 235.021931  L 247.591736 240.187415  L 254.765289 244.91303  L 261.938843 249.054082  L 269.112397 252.298621  L 276.28595 256.139829  L 283.459504 260.210702  L 290.633058 264.254706  L 297.806612 267.470951  L 304.980165 270.465697  L 312.153719 273.153282  L 319.327273 276.53338  L 326.500826 278.970361  L 333.67438 281.364587  L 340.847934 284.12554  L 348.021488 287.482784  L 355.195041 288.937761  L 362.368595 291.244639  L 369.542149 294.197028  L 376.715702 295.41795  L 383.889256 298.713322  L 391.06281 300.248202  L 398.236364 303.108504  L 405.409917 305.305143  L 412.583471 306.904402  L 419.757025 309.120973  L 426.930579 311.018923  L 434.104132 311.916863  L 441.277686 314.085479  L 448.45124 315.92609  L 455.624793 317.573906  L 462.798347 319.006876  L 469.971901 320.662733  L 477.145455 321.423141  L 484.319008 322.687283  L 491.492562 324.894307  L 498.666116 326.645491  L 505.839669 327.223011  L 513.013223 328.876792  L 520.186777 330.066421  L 527.360331 331.578671  L 534.533884 333.161496  L 541.707438 333.972129  L 548.880992 334.519512  L 556.054545 335.937257  L 563.228099 337.301314  L 570.401653 338.88798  L 577.575207 340.454912  L 584.74876 340.987582  L 591.922314 341.654079  L 599.095868 341.158912  L 606.269421 342.562376  L 613.442975 343.861841  L 620.616529 345.604537  L 627.790083 346.454005  L 634.963636 347.274395  L 642.13719 348.712003  L 649.310744 348.825229  L 656.484298 349.854862  L 663.657851 350.60609  L 670.831405 351.873064  L 678.004959 352.461515  L 685.178512 353.506437  L 692.352066 354.219874  L 699.52562 354.662724  L 706.699174 355.756332  L 713.872727 355.488882  L 721.046281 356.294344  L 728.219835 357.141012  L 735.393388 358.659293  L 742.566942 358.884782  L 749.740496 359.404571  L 756.91405 359.440836  L 764.087603 360.993228  L 771.261157 361.702868  L 778.434711 362.029579  L 785.608264 362.010269  L 792.781818 362.177347  L 799.955372 363.332372  L 807.128926 364.482692  L 814.302479 364.987881  L 821.476033 366.284218  L 828.649587 366.589519  L 835.82314 367.090343  L 842.996694 367.406287  L 850.170248 368.202355  L 857.343802 368.566405  L 864.517355 368.477876  L 871.690909 369.36  L 871.690909 367.830563  L 871.690909 367.830563  L 864.517355 367.161285  L 857.343802 366.803967  L 850.170248 366.542285  L 842.996694 365.670502  L 835.82314 364.864923  L 828.649587 364.535996  L 821.476033 364.475289  L 814.302479 363.027109  L 807.128926 362.647023  L 799.955372 361.666694  L 792.781818 360.408256  L 785.608264 360.12549  L 778.434711 360.26832  L 771.261157 359.802524  L 764.087603 359.232857  L 756.91405 357.857487  L 749.740496 357.740195  L 742.566942 356.953549  L 735.393388 356.838623  L 728.219835 355.001367  L 721.046281 354.459517  L 713.872727 352.765053  L 706.699174 353.928074  L 699.52562 352.751239  L 692.352066 352.282979  L 685.178512 351.200771  L 678.004959 350.269371  L 670.831405 349.491914  L 663.657851 347.888813  L 656.484298 347.180963  L 649.310744 346.816134  L 642.13719 346.798989  L 634.963636 345.238231  L 627.790083 344.475662  L 620.616529 343.249056  L 613.442975 341.535978  L 606.269421 339.836934  L 599.095868 339.221984  L 591.922314 339.253261  L 584.74876 338.607331  L 577.575207 338.146023  L 570.401653 336.645801  L 563.228099 334.511853  L 556.054545 333.319224  L 548.880992 332.018673  L 541.707438 331.71839  L 534.533884 330.731809  L 527.360331 328.857254  L 520.186777 327.664005  L 513.013223 326.249377  L 505.839669 324.231619  L 498.666116 323.894769  L 491.492562 321.854025  L 484.319008 319.362957  L 477.145455 318.84848  L 469.971901 317.933305  L 462.798347 316.553209  L 455.624793 314.490495  L 448.45124 313.110769  L 441.277686 310.908108  L 434.104132 307.603985  L 426.930579 307.676643  L 419.757025 306.031816  L 412.583471 303.976409  L 405.409917 302.064078  L 398.236364 299.386183  L 391.06281 296.506165  L 383.889256 295.618879  L 376.715702 292.670343  L 369.542149 290.701624  L 362.368595 287.133077  L 355.195041 284.894116  L 348.021488 283.932099  L 340.847934 280.357764  L 333.67438 277.821119  L 326.500826 275.066437  L 319.327273 272.502076  L 312.153719 269.338105  L 304.980165 266.195613  L 297.806612 263.562719  L 290.633058 260.147412  L 283.459504 255.997375  L 276.28595 251.9124  L 269.112397 248.379821  L 261.938843 244.675199  L 254.765289 240.647531  L 247.591736 235.961193  L 240.418182 230.900023  L 233.244628 225.016954  L 226.071074 218.569092  L 218.897521 211.631211  L 211.723967 203.361216  L 204.550413 194.019546  L 197.37686 183.875046  L 190.203306 173.39567  L 183.029752 162.264746  L 175.856198 150.278711  L 168.682645 136.066815  L 161.509091 66.96  z "
           clip-path="url(#p409d166ed1)"
           style="fill: #0000ff; fill-opacity: 0.2"
           id="path5948" />
      </g>
      <g
         id="PolyCollection_2">
        <path
           d="M 161.509091 115.435225  L 161.509091 166.755865  L 168.682645 175.609085  L 175.856198 183.787638  L 183.029752 194.786144  L 190.203306 203.242742  L 197.37686 208.231698  L 204.550413 217.086405  L 211.723967 224.971968  L 218.897521 231.650681  L 226.071074 236.581123  L 233.244628 240.981095  L 240.418182 245.224168  L 247.591736 247.545017  L 254.765289 251.153305  L 261.938843 255.634802  L 269.112397 257.020526  L 276.28595 260.397567  L 283.459504 262.422583  L 290.633058 264.769485  L 297.806612 267.592475  L 304.980165 269.181505  L 312.153719 271.360739  L 319.327273 272.865199  L 326.500826 273.137463  L 333.67438 277.013517  L 340.847934 277.862839  L 348.021488 279.837122  L 355.195041 279.7446  L 362.368595 283.054865  L 369.542149 284.076765  L 376.715702 285.900742  L 383.889256 288.049439  L 391.06281 287.969372  L 398.236364 290.58396  L 405.409917 291.440945  L 412.583471 293.207231  L 419.757025 294.949598  L 426.930579 295.277395  L 434.104132 294.481091  L 441.277686 297.435436  L 448.45124 297.851692  L 455.624793 299.448838  L 462.798347 300.54421  L 469.971901 300.963955  L 477.145455 300.756739  L 484.319008 301.758848  L 491.492562 303.337617  L 498.666116 304.186969  L 505.839669 305.282992  L 513.013223 304.277685  L 520.186777 306.482822  L 527.360331 307.692838  L 534.533884 307.246851  L 541.707438 308.757814  L 548.880992 309.015352  L 556.054545 308.520403  L 563.228099 310.596957  L 570.401653 311.303644  L 577.575207 312.198858  L 584.74876 312.672045  L 591.922314 310.485594  L 599.095868 310.031069  L 606.269421 313.657737  L 613.442975 313.683214  L 620.616529 314.198744  L 627.790083 314.994641  L 634.963636 315.325186  L 642.13719 315.097136  L 649.310744 315.744044  L 656.484298 315.734362  L 663.657851 315.87374  L 670.831405 317.274071  L 678.004959 316.824174  L 685.178512 317.873837  L 692.352066 318.328112  L 699.52562 318.327112  L 706.699174 316.658172  L 713.872727 317.868923  L 721.046281 318.178232  L 728.219835 319.174956  L 735.393388 319.501286  L 742.566942 319.784425  L 749.740496 319.146359  L 756.91405 319.870714  L 764.087603 320.224154  L 771.261157 320.232515  L 778.434711 318.943959  L 785.608264 328.021588  L 792.781818 328.806736  L 799.955372 328.404297  L 807.128926 328.722932  L 814.302479 329.771738  L 821.476033 326.801348  L 828.649587 325.966055  L 835.82314 326.765617  L 842.996694 326.791908  L 850.170248 326.67487  L 857.343802 327.090663  L 864.517355 326.926741  L 871.690909 326.829414  L 871.690909 297.609098  L 871.690909 297.609098  L 864.517355 297.784947  L 857.343802 298.167306  L 850.170248 297.24868  L 842.996694 297.544024  L 835.82314 297.58565  L 828.649587 297.295366  L 821.476033 297.659999  L 814.302479 301.538427  L 807.128926 300.577893  L 799.955372 299.877392  L 792.781818 299.551098  L 785.608264 295.399842  L 778.434711 285.233418  L 771.261157 286.867093  L 764.087603 287.126462  L 756.91405 286.934665  L 749.740496 285.153858  L 742.566942 286.318343  L 735.393388 286.050717  L 728.219835 285.039595  L 721.046281 284.290748  L 713.872727 283.577356  L 706.699174 283.309554  L 699.52562 285.093329  L 692.352066 285.22238  L 685.178512 285.113733  L 678.004959 284.441545  L 670.831405 284.200111  L 663.657851 283.211973  L 656.484298 283.155018  L 649.310744 282.239886  L 642.13719 281.180614  L 634.963636 282.354915  L 627.790083 281.386419  L 620.616529 280.922981  L 613.442975 281.045296  L 606.269421 280.745253  L 599.095868 273.721805  L 591.922314 275.740219  L 584.74876 279.573487  L 577.575207 279.617053  L 570.401653 277.851819  L 563.228099 277.773063  L 556.054545 275.427573  L 548.880992 275.766103  L 541.707438 274.095714  L 534.533884 271.403184  L 527.360331 274.629603  L 520.186777 273.360571  L 513.013223 268.628928  L 505.839669 272.278082  L 498.666116 270.869454  L 491.492562 270.234065  L 484.319008 269.313098  L 477.145455 266.273239  L 469.971901 267.632903  L 462.798347 267.785116  L 455.624793 266.026267  L 448.45124 264.298178  L 441.277686 264.506714  L 434.104132 262.162144  L 426.930579 262.600957  L 419.757025 261.981593  L 412.583471 258.952566  L 405.409917 257.618665  L 398.236364 257.342285  L 391.06281 255.194012  L 383.889256 254.433321  L 376.715702 252.097843  L 369.542149 248.235946  L 362.368595 249.053956  L 355.195041 244.651195  L 348.021488 244.671927  L 340.847934 243.965886  L 333.67438 243.205907  L 326.500826 238.216232  L 319.327273 239.446085  L 312.153719 237.269275  L 304.980165 235.478554  L 297.806612 233.753587  L 290.633058 229.577353  L 283.459504 228.384113  L 276.28595 225.611876  L 269.112397 221.992654  L 261.938843 220.729648  L 254.765289 216.511357  L 247.591736 212.899076  L 240.418182 210.475412  L 233.244628 204.576641  L 226.071074 201.087548  L 218.897521 195.25544  L 211.723967 188.486836  L 204.550413 180.656715  L 197.37686 168.586652  L 190.203306 162.464537  L 183.029752 151.96835  L 175.856198 140.317154  L 168.682645 128.83822  L 161.509091 115.435225  z "
           clip-path="url(#p409d166ed1)"
           style="fill: #ff0000; fill-opacity: 0.2"
           id="path5951" />
      </g>
      <g
         id="line2d_12">
        <path
           d="M 161.509091 70.807834  L 168.682645 138.925494  L 175.856198 152.705793  L 183.029752 164.787796  L 190.203306 175.704476  L 197.37686 186.033911  L 204.550413 196.39432  L 211.723967 205.590418  L 218.897521 213.665405  L 226.071074 220.748627  L 233.244628 227.045711  L 240.418182 232.960977  L 247.591736 238.074304  L 254.765289 242.78028  L 261.938843 246.86464  L 269.112397 250.339221  L 276.28595 254.026114  L 283.459504 258.104038  L 290.633058 262.201059  L 297.806612 265.516835  L 304.980165 268.330655  L 312.153719 271.245694  L 319.327273 274.517728  L 326.500826 277.018399  L 333.67438 279.592853  L 340.847934 282.241652  L 348.021488 285.707441  L 355.195041 286.915938  L 362.368595 289.188858  L 369.542149 292.449326  L 376.715702 294.044146  L 383.889256 297.1661  L 391.06281 298.377183  L 398.236364 301.247344  L 405.409917 303.68461  L 412.583471 305.440405  L 419.757025 307.576395  L 426.930579 309.347783  L 434.104132 309.760424  L 441.277686 312.496794  L 448.45124 314.518429  L 455.624793 316.032201  L 462.798347 317.780043  L 469.971901 319.298019  L 477.145455 320.13581  L 484.319008 321.02512  L 491.492562 323.374166  L 498.666116 325.27013  L 505.839669 325.727315  L 513.013223 327.563084  L 520.186777 328.865213  L 527.360331 330.217963  L 534.533884 331.946653  L 541.707438 332.84526  L 548.880992 333.269092  L 556.054545 334.62824  L 563.228099 335.906584  L 570.401653 337.766891  L 577.575207 339.300468  L 584.74876 339.797457  L 591.922314 340.45367  L 599.095868 340.190448  L 606.269421 341.199655  L 613.442975 342.69891  L 620.616529 344.426797  L 627.790083 345.464833  L 634.963636 346.256313  L 642.13719 347.755496  L 649.310744 347.820681  L 656.484298 348.517912  L 663.657851 349.247452  L 670.831405 350.682489  L 678.004959 351.365443  L 685.178512 352.353604  L 692.352066 353.251426  L 699.52562 353.706981  L 706.699174 354.842203  L 713.872727 354.126967  L 721.046281 355.376931  L 728.219835 356.07119  L 735.393388 357.748958  L 742.566942 357.919165  L 749.740496 358.572383  L 756.91405 358.649161  L 764.087603 360.113042  L 771.261157 360.752696  L 778.434711 361.14895  L 785.608264 361.067879  L 792.781818 361.292802  L 799.955372 362.499533  L 807.128926 363.564858  L 814.302479 364.007495  L 821.476033 365.379753  L 828.649587 365.562757  L 835.82314 365.977633  L 842.996694 366.538395  L 850.170248 367.37232  L 857.343802 367.685186  L 864.517355 367.819581  L 871.690909 368.595282  "
           clip-path="url(#p409d166ed1)"
           style="fill: none; stroke: #0000ff; stroke-width: 1.5; stroke-linecap: square"
           id="path6147" />
      </g>
      <g
         id="line2d_13">
        <path
           d="M 161.509091 141.095545  L 168.682645 152.223652  L 175.856198 162.052396  L 183.029752 173.377247  L 190.203306 182.85364  L 197.37686 188.409175  L 204.550413 198.87156  L 211.723967 206.729402  L 218.897521 213.45306  L 226.071074 218.834335  L 233.244628 222.778868  L 240.418182 227.84979  L 247.591736 230.222047  L 254.765289 233.832331  L 261.938843 238.182225  L 269.112397 239.50659  L 276.28595 243.004722  L 283.459504 245.403348  L 290.633058 247.173419  L 297.806612 250.673031  L 304.980165 252.330029  L 312.153719 254.315007  L 319.327273 256.155642  L 326.500826 255.676848  L 333.67438 260.109712  L 340.847934 260.914362  L 348.021488 262.254524  L 355.195041 262.197898  L 362.368595 266.054411  L 369.542149 266.156355  L 376.715702 268.999292  L 383.889256 271.24138  L 391.06281 271.581692  L 398.236364 273.963123  L 405.409917 274.529805  L 412.583471 276.079898  L 419.757025 278.465596  L 426.930579 278.939176  L 434.104132 278.321617  L 441.277686 280.971075  L 448.45124 281.074935  L 455.624793 282.737552  L 462.798347 284.164663  L 469.971901 284.298429  L 477.145455 283.514989  L 484.319008 285.535973  L 491.492562 286.785841  L 498.666116 287.528212  L 505.839669 288.780537  L 513.013223 286.453306  L 520.186777 289.921696  L 527.360331 291.161221  L 534.533884 289.325018  L 541.707438 291.426764  L 548.880992 292.390728  L 556.054545 291.973988  L 563.228099 294.18501  L 570.401653 294.577732  L 577.575207 295.907956  L 584.74876 296.122766  L 591.922314 293.112906  L 599.095868 291.876437  L 606.269421 297.201495  L 613.442975 297.364255  L 620.616529 297.560862  L 627.790083 298.19053  L 634.963636 298.840051  L 642.13719 298.138875  L 649.310744 298.991965  L 656.484298 299.44469  L 663.657851 299.542856  L 670.831405 300.737091  L 678.004959 300.63286  L 685.178512 301.493785  L 692.352066 301.775246  L 699.52562 301.71022  L 706.699174 299.983863  L 713.872727 300.723139  L 721.046281 301.23449  L 728.219835 302.107275  L 735.393388 302.776001  L 742.566942 303.051384  L 749.740496 302.150108  L 756.91405 303.40269  L 764.087603 303.675308  L 771.261157 303.549804  L 778.434711 302.088689  L 785.608264 311.710715  L 792.781818 314.178917  L 799.955372 314.140845  L 807.128926 314.650413  L 814.302479 315.655082  L 821.476033 312.230674  L 828.649587 311.63071  L 835.82314 312.175634  L 842.996694 312.167966  L 850.170248 311.961775  L 857.343802 312.628984  L 864.517355 312.355844  L 871.690909 312.219256  "
           clip-path="url(#p409d166ed1)"
           style="fill: none; stroke: #ff0000; stroke-width: 1.5; stroke-linecap: square"
           id="path6150" />
      </g>
      <g
         id="patch_3">
        <path
           d="M 126 384.48  L 126 51.84  "
           style="fill: none; stroke: #000000; stroke-width: 0.8; stroke-linejoin: miter; stroke-linecap: square"
           id="path6153" />
      </g>
      <g
         id="patch_4">
        <path
           d="M 907.2 384.48  L 907.2 51.84  "
           style="fill: none; stroke: #000000; stroke-width: 0.8; stroke-linejoin: miter; stroke-linecap: square"
           id="path6156" />
      </g>
      <g
         id="patch_5">
        <path
           d="M 126 384.48  L 907.2 384.48  "
           style="fill: none; stroke: #000000; stroke-width: 0.8; stroke-linejoin: miter; stroke-linecap: square"
           id="path6159" />
      </g>
      <g
         id="patch_6">
        <path
           d="M 126 51.84  L 907.2 51.84  "
           style="fill: none; stroke: #000000; stroke-width: 0.8; stroke-linejoin: miter; stroke-linecap: square"
           id="path6162" />
      </g>
      <g
         id="legend_1">
        <g
           id="patch_7"
           transform="matrix(2.04,0,0,2.04,-934.35522,-61.985132)">
          <path
             d="M 793.70625,89.19625 H 900.2 q 2,0 2,-2 V 58.84 q 0,-2 -2,-2 H 793.70625 q -2,0 -2,2 v 28.35625 q 0,2 2,2 z"
             style="opacity:0.8;fill:#ffffff;stroke:#cccccc;stroke-linejoin:miter"
             id="path6165" />
        </g>
        <g
           id="line2d_14"
           transform="matrix(2.04,0,0,1,-931.95847,10.953719)">
          <path
             d="m 795.70625,64.938437 h 10 10"
             style="fill:none;stroke:#0000ff;stroke-width:1.5;stroke-linecap:square"
             id="path6168" />
        </g>
        <g
           id="text_12"
           transform="matrix(2.04,0,0,2.04,-940.48345,-55.852505)">
          <!-- Training Loss -->
          <g
             transform="matrix(0.1,0,0,-0.1,823.70625,68.438437)"
             id="g6209">
            <defs
               id="defs6181">
              <path
                 id="DejaVuSans-54"
                 d="M -19,4666 H 3928 V 4134 H 2272 V 0 H 1638 V 4134 H -19 Z"
                 transform="scale(0.015625)" />
              <path
                 id="DejaVuSans-72"
                 d="m 2631,2963 q -97,56 -211,82 -114,27 -251,27 -488,0 -749,-317 -261,-317 -261,-911 V 0 H 581 v 3500 h 578 v -544 q 182,319 472,473 291,155 707,155 59,0 131,-8 72,-7 159,-23 z"
                 transform="scale(0.015625)" />
              <path
                 id="DejaVuSans-61"
                 d="m 2194,1759 q -697,0 -966,-159 -269,-159 -269,-544 0,-306 202,-486 202,-179 548,-179 479,0 768,339 289,339 289,901 v 128 z m 1147,238 V 0 H 2766 V 531 Q 2569,213 2275,61 1981,-91 1556,-91 q -537,0 -855,302 -317,302 -317,808 0,590 395,890 396,300 1180,300 h 807 v 57 q 0,397 -261,614 -261,217 -733,217 -300,0 -585,-72 -284,-72 -546,-216 v 532 q 315,122 612,182 297,61 578,61 760,0 1135,-394 375,-393 375,-1193 z"
                 transform="scale(0.015625)" />
              <path
                 id="DejaVuSans-69"
                 d="m 603,3500 h 575 V 0 H 603 Z m 0,1363 h 575 V 4134 H 603 Z"
                 transform="scale(0.015625)" />
              <path
                 id="DejaVuSans-6e"
                 d="M 3513,2113 V 0 h -575 v 2094 q 0,497 -194,743 -194,247 -581,247 -466,0 -735,-297 -269,-296 -269,-809 V 0 H 581 v 3500 h 578 v -544 q 207,316 486,472 280,156 646,156 603,0 912,-373 310,-373 310,-1098 z"
                 transform="scale(0.015625)" />
              <path
                 id="DejaVuSans-67"
                 d="m 2906,1791 q 0,625 -258,968 -257,344 -723,344 -462,0 -720,-344 -258,-343 -258,-968 0,-622 258,-966 258,-344 720,-344 466,0 723,344 258,344 258,966 z M 3481,434 q 0,-893 -397,-1329 -396,-436 -1215,-436 -303,0 -572,45 -269,45 -522,139 v 559 q 253,-137 500,-202 247,-66 503,-66 566,0 847,295 281,295 281,892 V 616 Q 2728,306 2450,153 2172,0 1784,0 1141,0 747,490 353,981 353,1791 q 0,812 394,1302 394,491 1037,491 388,0 666,-153 278,-153 456,-462 v 531 h 575 z"
                 transform="scale(0.015625)" />
              <path
                 id="DejaVuSans-20"
                 transform="scale(0.015625)"
                 d="" />
              <path
                 id="DejaVuSans-4c"
                 d="m 628,4666 h 631 V 531 H 3531 V 0 H 628 Z"
                 transform="scale(0.015625)" />
              <path
                 id="DejaVuSans-6f"
                 d="m 1959,3097 q -462,0 -731,-361 -269,-361 -269,-989 0,-628 267,-989 268,-361 733,-361 460,0 728,362 269,363 269,988 0,622 -269,986 -268,364 -728,364 z m 0,487 q 750,0 1178,-488 429,-487 429,-1349 Q 3566,888 3137,398 2709,-91 1959,-91 1206,-91 779,398 353,888 353,1747 q 0,862 426,1349 427,488 1180,488 z"
                 transform="scale(0.015625)" />
              <path
                 id="DejaVuSans-73"
                 d="m 2834,3397 v -544 q -243,125 -506,187 -262,63 -544,63 -428,0 -642,-131 -214,-131 -214,-394 0,-200 153,-314 153,-114 616,-217 l 197,-44 q 612,-131 870,-370 258,-239 258,-667 0,-488 -386,-773 Q 2250,-91 1575,-91 1294,-91 989,-36 684,19 347,128 v 594 q 319,-166 628,-249 309,-82 613,-82 406,0 624,139 219,139 219,392 0,234 -158,359 -157,125 -692,241 l -200,47 q -534,112 -772,345 -237,233 -237,639 0,494 350,762 350,269 994,269 318,0 599,-47 282,-46 519,-140 z"
                 transform="scale(0.015625)" />
            </defs>
            <use
               xlink:href="#DejaVuSans-54"
               id="use6183" />
            <use
               xlink:href="#DejaVuSans-72"
               x="46.333984"
               id="use6185" />
            <use
               xlink:href="#DejaVuSans-61"
               x="87.447266"
               id="use6187" />
            <use
               xlink:href="#DejaVuSans-69"
               x="148.72656"
               id="use6189" />
            <use
               xlink:href="#DejaVuSans-6e"
               x="176.50977"
               id="use6191" />
            <use
               xlink:href="#DejaVuSans-69"
               x="239.88867"
               id="use6193" />
            <use
               xlink:href="#DejaVuSans-6e"
               x="267.67188"
               id="use6195" />
            <use
               xlink:href="#DejaVuSans-67"
               x="331.05078"
               id="use6197" />
            <use
               xlink:href="#DejaVuSans-20"
               x="394.52734"
               id="use6199" />
            <use
               xlink:href="#DejaVuSans-4c"
               x="426.31445"
               id="use6201" />
            <use
               xlink:href="#DejaVuSans-6f"
               x="480.27734"
               id="use6203" />
            <use
               xlink:href="#DejaVuSans-73"
               x="541.45898"
               id="use6205" />
            <use
               xlink:href="#DejaVuSans-73"
               x="593.55859"
               id="use6207" />
          </g>
        </g>
        <g
           id="line2d_15"
           transform="matrix(2.04,0,0,1,-930.45847,15.453719)">
          <path
             d="m 795.70625,79.616562 h 10 10"
             style="fill:none;stroke:#ff0000;stroke-width:1.5;stroke-linecap:square"
             id="path6212" />
        </g>
        <g
           id="text_13"
           transform="matrix(2.04,0,0,2.04,-939.70235,-67.110256)">
          <!-- Validation Loss -->
          <g
             transform="matrix(0.1,0,0,-0.1,823.70625,83.116562)"
             id="g6251">
            <defs
               id="defs6219">
              <path
                 id="DejaVuSans-56"
                 d="M 1831,0 50,4666 H 709 L 2188,738 3669,4666 h 656 L 2547,0 Z"
                 transform="scale(0.015625)" />
              <path
                 id="DejaVuSans-6c"
                 d="m 603,4863 h 575 V 0 H 603 Z"
                 transform="scale(0.015625)" />
              <path
                 id="DejaVuSans-64"
                 d="m 2906,2969 v 1894 h 575 V 0 H 2906 V 525 Q 2725,213 2448,61 2172,-91 1784,-91 1150,-91 751,415 353,922 353,1747 q 0,825 398,1331 399,506 1033,506 388,0 664,-152 277,-151 458,-463 z M 947,1747 q 0,-634 261,-995 261,-361 717,-361 456,0 718,361 263,361 263,995 0,634 -263,995 -262,361 -718,361 -456,0 -717,-361 -261,-361 -261,-995 z"
                 transform="scale(0.015625)" />
              <path
                 id="DejaVuSans-74"
                 d="M 1172,4494 V 3500 H 2356 V 3053 H 1172 V 1153 q 0,-428 117,-550 117,-122 477,-122 h 590 V 0 H 1766 Q 1100,0 847,248 594,497 594,1153 V 3053 H 172 v 447 h 422 v 994 z"
                 transform="scale(0.015625)" />
            </defs>
            <use
               xlink:href="#DejaVuSans-56"
               id="use6221" />
            <use
               xlink:href="#DejaVuSans-61"
               x="60.658203"
               id="use6223" />
            <use
               xlink:href="#DejaVuSans-6c"
               x="121.9375"
               id="use6225" />
            <use
               xlink:href="#DejaVuSans-69"
               x="149.7207"
               id="use6227" />
            <use
               xlink:href="#DejaVuSans-64"
               x="177.50391"
               id="use6229" />
            <use
               xlink:href="#DejaVuSans-61"
               x="240.98047"
               id="use6231" />
            <use
               xlink:href="#DejaVuSans-74"
               x="302.25977"
               id="use6233" />
            <use
               xlink:href="#DejaVuSans-69"
               x="341.46875"
               id="use6235" />
            <use
               xlink:href="#DejaVuSans-6f"
               x="369.25195"
               id="use6237" />
            <use
               xlink:href="#DejaVuSans-6e"
               x="430.43359"
               id="use6239" />
            <use
               xlink:href="#DejaVuSans-20"
               x="493.8125"
               id="use6241" />
            <use
               xlink:href="#DejaVuSans-4c"
               x="525.59961"
               id="use6243" />
            <use
               xlink:href="#DejaVuSans-6f"
               x="579.5625"
               id="use6245" />
            <use
               xlink:href="#DejaVuSans-73"
               x="640.74414"
               id="use6247" />
            <use
               xlink:href="#DejaVuSans-73"
               x="692.84375"
               id="use6249" />
          </g>
        </g>
      </g>
    </g>
  </g>
  <defs
     id="defs6260">
    <clipPath
       id="p409d166ed1">
      <rect
         x="126"
         y="51.84"
         width="781.2"
         height="332.64"
         id="rect6257" />
    </clipPath>
  </defs>
  <text
     xml:space="preserve"
     style="font-size:9px;fill:#000000;stroke-width:0.75"
     x="20.161983"
     y="77.642975"
     id="text6268"><tspan
       sodipodi:role="line"
       id="tspan6266"
       style="stroke-width:0.75"
       x="20.161983"
       y="77.642975">0.25</tspan></text>
  <text
     xml:space="preserve"
     style="font-size:12px;fill:#000000;stroke-width:0.75"
     x="13.995869"
     y="149.11736"
     id="text6272"><tspan
       sodipodi:role="line"
       id="tspan6270"
       style="stroke-width:0.75"
       x="13.995869"
       y="149.11736">0.20</tspan></text>
  <text
     xml:space="preserve"
     style="font-size:12px;fill:#000000;stroke-width:0.75"
     x="13.328925"
     y="224.09256"
     id="text6276"><tspan
       sodipodi:role="line"
       id="tspan6274"
       style="stroke-width:0.75"
       x="13.328925"
       y="224.09256">0.15</tspan></text>
  <text
     xml:space="preserve"
     style="font-size:12px;fill:#000000;stroke-width:0.75"
     x="15.161158"
     y="295.73553"
     id="text6280"><tspan
       sodipodi:role="line"
       id="tspan6278"
       style="stroke-width:0.75"
       x="15.161158"
       y="295.73553">0.10</tspan></text>
  <text
     xml:space="preserve"
     style="font-size:12px;fill:#000000;stroke-width:0.75"
     x="14.995041"
     y="370.71072"
     id="text6284"><tspan
       sodipodi:role="line"
       id="tspan6282"
       style="stroke-width:0.75"
       x="14.995041"
       y="370.71072">0.05</tspan></text>
  <text
     xml:space="preserve"
     style="font-size:12px;fill:#000000;stroke-width:0.75"
     x="155.45207"
     y="424.69342"
     id="text6288"><tspan
       sodipodi:role="line"
       id="tspan6286"
       style="stroke-width:0.75"
       x="155.45207"
       y="424.69342">0</tspan></text>
  <text
     xml:space="preserve"
     style="font-size:12px;fill:#000000;stroke-width:0.75"
     x="294.73389"
     y="424.02643"
     id="text6292"><tspan
       sodipodi:role="line"
       id="tspan6290"
       style="stroke-width:0.75"
       x="294.73389"
       y="424.02643">20</tspan></text>
  <text
     xml:space="preserve"
     style="font-size:12px;fill:#000000;stroke-width:0.75"
     x="437.35291"
     y="424.85953"
     id="text6296"><tspan
       sodipodi:role="line"
       id="tspan6294"
       style="stroke-width:0.75"
       x="437.35291"
       y="424.85953">40</tspan></text>
  <text
     xml:space="preserve"
     style="font-size:12px;fill:#000000;stroke-width:0.75"
     x="582.13885"
     y="424.52728"
     id="text6300"><tspan
       sodipodi:role="line"
       id="tspan6298"
       style="stroke-width:0.75"
       x="582.13885"
       y="424.52728">60</tspan></text>
  <text
     xml:space="preserve"
     style="font-size:12px;fill:#000000;stroke-width:0.75"
     x="724.92395"
     y="424.52728"
     id="text6304"><tspan
       sodipodi:role="line"
       id="tspan6302"
       style="stroke-width:0.75"
       x="724.92395"
       y="424.52728">80</tspan></text>
  <text
     xml:space="preserve"
     style="font-size:12px;fill:#000000;stroke-width:0.75"
     x="864.71167"
     y="424.02643"
     id="text6308"><tspan
       sodipodi:role="line"
       id="tspan6306"
       style="stroke-width:0.75"
       x="864.71167"
       y="424.02643">100</tspan></text>
  <rect
     style="fill:#000000;stroke-width:0.75"
     id="rect6310"
     width="10.014034"
     height="2.3562434"
     x="121.34653"
     y="73.043549" />
  <rect
     style="fill:#000000;stroke-width:0.75;stroke-linecap:butt;stroke-linejoin:round"
     id="rect6310-8"
     width="10.014034"
     height="2.3562434"
     x="119.92858"
     y="146.09338" />
  <rect
     style="fill:#000000;stroke-width:0.75;stroke-linecap:butt;stroke-linejoin:round"
     id="rect6310-7"
     width="10.014034"
     height="2.3562434"
     x="119.87389"
     y="218.54158" />
  <rect
     style="fill:#000000;stroke-width:0.75;stroke-linecap:butt;stroke-linejoin:round"
     id="rect6310-2"
     width="10.014034"
     height="2.3562434"
     x="120.46294"
     y="292.17419" />
  <rect
     style="fill:#000000;stroke-width:0.75;stroke-linecap:butt;stroke-linejoin:round"
     id="rect6310-85"
     width="10.014034"
     height="2.3562434"
     x="120.46295"
     y="365.21771" />
  <rect
     style="fill:#000000;stroke-width:0.75"
     id="rect6373"
     width="2.3562434"
     height="10.603096"
     x="160.81361"
     y="381.71143" />
  <rect
     style="fill:#000000;stroke-width:0.75;stroke-linecap:butt;stroke-linejoin:round"
     id="rect6373-6"
     width="2.3562434"
     height="10.603096"
     x="303.95541"
     y="380.53333" />
  <rect
     style="fill:#000000;stroke-width:0.75;stroke-linecap:butt;stroke-linejoin:round"
     id="rect6373-5"
     width="2.3562434"
     height="10.603096"
     x="447.68625"
     y="381.71143" />
  <rect
     style="fill:#000000;stroke-width:0.75;stroke-linecap:butt;stroke-linejoin:round"
     id="rect6373-9"
     width="2.3562434"
     height="10.603096"
     x="591.41711"
     y="381.71143" />
  <rect
     style="fill:#000000;stroke-width:0.75;stroke-linecap:butt;stroke-linejoin:round"
     id="rect6373-2"
     width="2.3562434"
     height="10.603096"
     x="733.96985"
     y="381.12238" />
  <rect
     style="fill:#000000;stroke-width:0.75;stroke-linecap:butt;stroke-linejoin:round"
     id="rect6373-7"
     width="2.3562434"
     height="10.603096"
     x="877.70068"
     y="381.12238" />
</svg>
